<?xml version="1.0" encoding="utf-8"?>
<!-- Generator: Adobe Illustrator 25.4.8, SVG Export Plug-In . SVG Version: 6.00 Build 0)  -->
<svg version="1.1" id="Capa_1" xmlns="http://www.w3.org/2000/svg" xmlns:xlink="http://www.w3.org/1999/xlink" x="0px" y="0px"
	 viewBox="0 0 100 100" style="enable-background:new 0 0 100 100;" xml:space="preserve">

	     <style type="text/css">

        /* ACÁ ESTÁ LA ANIMACIÓN */        
        @keyframes baja {
            from {
                transform: translate(-10px,-10px);
                fill:#ADD8E6;
            }
            to {
                transform: translate(20px,20px);
                fill: #6495ED;
                opacity: 0;
            }
        }
        #gotas {
            animation: baja 1s infinite;
        }
    </style>
<path d="M92.7,47c-0.1,7.3-6,13.2-13.3,13.2H27.5c-11.2,0-20.2-9.7-20.2-20C7.4,29,16.5,20.1,27.6,20.1c1.6,0,3.2,0.2,4.7,0.6
	c1.5-5.8,6.8-9.9,12.8-10c7.2,0,13.1,5.8,13.3,13v0.1c1-0.1,2-0.2,3.1-0.2c6.9,0,13.2,4.1,16,10.5c0.7-0.1,1.3-0.1,2-0.1
	C86.7,33.9,92.6,39.8,92.7,47z"/>
<g id="gotas">
	<path d="M38.9,83.9c1.1,1.5,0.7,3.6-0.9,4.7c0,0,0,0,0,0c-0.6,0.5-1.3,0.7-2,0.7c-1.1-0.1-2.1-0.6-2.7-1.5l-8.7-12.3
		c-1.1-1.5-0.8-3.5,0.6-4.7c1.4-1.1,3.5-0.9,4.6,0.5c0.1,0.1,0.1,0.2,0.2,0.3L38.9,83.9z"/>
	<path d="M82.4,83.9c1.1,1.4,0.9,3.4-0.5,4.5c-0.1,0.1-0.1,0.1-0.2,0.2c-0.6,0.4-1.3,0.7-2,0.7c-1.1-0.1-2.1-0.6-2.7-1.5l-8.9-12.3
		c-1.1-1.5-0.8-3.6,0.7-4.7c0,0,0,0,0,0c1.4-1.1,3.5-0.9,4.6,0.5c0.1,0.1,0.1,0.1,0.2,0.2L82.4,83.9z"/>
</g>
</svg>
